# xmcd CD database file
#
# Track frame offsets:
#	150
#	25685
#	46127
#	63447
#	90667
#	107887
#	131840
#	149512
#	169700
#	184492
#	212702
#	227690
#	250357
#	273790
#
# Disc length: 3914 seconds
#
# Revision: 0
# Processed by: cddbd v1.5.2PL0 Copyright (c) Steve Scherf et al.
# Submitted via: CDex 1.51
#
DISCID=ca0f480e
DTITLE=Atomic Rooster - Heavy Soul [CD2)
DYEAR=2002
DGENRE=Rhythmic Soul
TTITLE0=Head In the Sky
TTITLE1=The Rock
TTITLE2=Close Your Eyes
TTITLE3=Time Take My Life
TTITLE4=Stand By Me
TTITLE5=Breathless
TTITLE6=People You Can't Trust
TTITLE7=Can't Find A Reason
TTITLE8=Save Me
TTITLE9=Ear In The Snow
TTITLE10=Never To Lose
TTITLE11=Take One Toke
TTITLE12=All Across The Country
TTITLE13=Moods
EXTD=YEAR: 2002
EXTT0=
EXTT1=
EXTT2=
EXTT3=
EXTT4=
EXTT5=
EXTT6=
EXTT7=
EXTT8=
EXTT9=
EXTT10=
EXTT11=
EXTT12=
EXTT13=
PLAYORDER=
